<svg xmlns="http://www.w3.org/2000/svg" style="display:none">

  <symbol id="icon-instagram" viewBox="0 0 24 24">
    <path d="M7 2h10a5 5 0 015 5v10a5 5 0 01-5 5H7a5 5 0 01-5-5V7a5 5 0 015-5zm5 5.5a4.5 4.5 0 100 9 4.5 4.5 0 000-9zm6.5-.75a1 1 0 11-2 0 1 1 0 012 0zM12 9a3 3 0 110 6 3 3 0 010-6z"/>
  </symbol>

  <symbol id="icon-x" viewBox="0 0 24 24">
    <path d="M3 3l7.5 8.8L3 21h3.5l5.7-6.6L18 21h3L13 11.8 21 3h-3.5l-5.2 6.1L6 3H3z"/>
  </symbol>

  <symbol id="icon-facebook" viewBox="0 0 24 24">
    <path d="M13 3h4V0h-4a6 6 0 00-6 6v3H4v4h3v11h4V13h4l1-4h-5V6a2 2 0 012-2z"/>
  </symbol>

  <symbol id="icon-linkedin" viewBox="0 0 24 24">
    <path d="M4 3a2 2 0 110 4 2 2 0 010-4zm-2 6h4v12H2V9zm7 0h4v2h.1a4.4 4.4 0 014-2.2c4.3 0 5.1 2.8 5.1 6.4V21h-4v-5.4c0-1.3 0-3-1.8-3s-2.1 1.4-2.1 2.9V21h-4V9z"/>
  </symbol>

</svg>
